/* XPM */
static char * pterm_32_xpm[] = {
"32 32 17 1",
" 	c None",
".	c #FF9000",
"+	c #E58200",
"@	c #DF7E00",
"#	c #D37700",
"$	c #C26E00",
"%	c #B76800",
"&	c #AB6100",
"*	c #A55D00",
"=	c #8E5000",
"-	c #884D00",
";	c #824A00",
">	c #774300",
",	c #714000",
"'	c #482900",
")	c #403020",
"!	c #000000",
"))))))))))))))))))))))))))))))))",
")!!!!!!!!!!!!!!!!!!!!!!!!!!!!!!)",
")!!!!!!!!!!!!!!!!!!!!!!!!!!!!!!)",
")!!!!!!!!!!!!!!!!!!!!!!!!!!!!!!)",
")!!!!!!!!!!!!!!!!!!!!!!!!!!!!!!)",
")!!!!!!!!!!!!!!!!!!!!!!!!!!!!!!)",
")!!!!!!!!!!!!!!!!!!!!!!!!!!!!!!)",
")!!!!!!!!!!!!!!!!!!!!!!!!!!!!!!)",
")!!!!!!!!!!!.@.-.=!!!!!!!!!!!!!)",
")!!!!!!!!!!!!!!!!!!!!!!!!!!!!!!)",
")!!!!!!!!!!!!!!!!!!!!!!!!!!!!!!)",
")!!!!!!!!!!#*+,'+$=!!!!!!!!!!!!)",
")!!!!!!!!!!!!!!!!!!!!!!!!!!!!!!)",
")!!!!!!!!!!!!!!!!!!!!!!!!!!!!!!)",
")!!!!!!!!!!!!!!!!!!!!!!!!!!!!!!)",
")!!!!!!!!!!;!!!!!!!!!!!!!!!!!!!)",
")!!!!!!!!!!!!!!!!!!!!!!!!!!!!!!)",
")!!!!!!!!!!!!!!!!!!!!!!!!!!!!!!)",
")!!!!!!!!!!!!!!!!!!!!!!!!!!!!!!)",
")!!!!!!!!!!!!!!!!!!!!!!!!!!!!!!)",
")!!!!!!!!!!-+;%&%$>!!!!!!!!!!!!)",
")!!!!!!!!!!!!!!!!!!!!!!!!!!!!!!)",
")!!!!!!!!!!!!!!!!!!!!!!!!!!!!!!)",
")!!!!!!!!!!!!!!!!!!!!!!!!!!!!!!)",
")!!!!!!!!!!!!!!!!!!!!!!!!!!!!!!)",
")!!!!!!!!!!!!!!!!!!!!!!!!!!!!!!)",
")!!!!!!!!!!!!!!!!!!!!!!!!!!!!!!)",
")!!!!!!!!!!!!!!!!!!!!!!!!!!!!!!)",
")!!!!!!!!!!!!!!!!!!!!!!!!!!!!!!)",
")!!!!!!!!!!!!!!!!!!!!!!!!!!!!!!)",
")!!!!!!!!!!!!!!!!!!!!!!!!!!!!!!)",
"))))))))))))))))))))))))))))))))"};
